<?xml version="1.0" encoding="UTF-8"?>
<svg width="30px" height="24px" viewBox="0 0 30 24" version="1.1" xmlns="http://www.w3.org/2000/svg" xmlns:xlink="http://www.w3.org/1999/xlink">
    <!-- Generator: Sketch 52.5 (67469) - http://www.bohemiancoding.com/sketch -->
    <title>devices</title>
    <desc>Created with Sketch.</desc>
    <g id="devices" stroke="none" stroke-width="1" fill="none" fill-rule="evenodd">
        <g id="baseline-phonelink-24px" transform="translate(2.000000, 3.000000)" fill="#FFFFFF" fill-rule="nonzero">
            <path d="M4,2 L4,13 L14,13 L14,16 L0,16 L0,13 L2,13 L2,2 C2,0.9 2.9,0 4,0 L20,0 C21.1045695,-2.02906125e-16 22,0.8954305 22,2 L4,2 Z M24.4,4 C25.17,4 25.8,4.63 25.8,5.4 L25.8,16.6 C25.8,17.37 25.17,18 24.4,18 L17.4,17.993 C16.63,17.993 16,17.37 16,16.6 L16,5.4 C16,4.63 16.63,4 17.4,4 L24.4,4 Z M20.9,5.4 C20.123,5.4 19.5,6.03 19.5,6.8 C19.5,7.57 20.123,8.2 20.9,8.2 C21.67,8.2 22.3,7.57 22.3,6.8 C22.3,6.03 21.67,5.4 20.9,5.4 Z M20.9,16.6 C22.832,16.6 24.4,15.032 24.4,13.1 C24.4,11.168 22.832,9.6 20.9,9.6 C18.968,9.6 17.4,11.168 17.4,13.1 C17.4,15.032 18.968,16.6 20.9,16.6 Z M20.9,11 C22.062,11 23,11.938 23,13.1 C23,14.262 22.062,15.2 20.9,15.2 C19.738,15.2 18.8,14.262 18.8,13.1 C18.8,11.938 19.738,11 20.9,11 Z" id="Shape"></path>
        </g>
    </g>
</svg>